<?xml version="1.0" encoding="utf-8"?>
<!-- Generator: Adobe Illustrator 26.4.0, SVG Export Plug-In . SVG Version: 6.00 Build 0)  -->
<svg version="1.1" id="Layer_1" xmlns="http://www.w3.org/2000/svg" xmlns:xlink="http://www.w3.org/1999/xlink" x="0px" y="0px"
	 viewBox="0 0 400 105.2" style="enable-background:new 0 0 400 105.2;" xml:space="preserve">
<style type="text/css">
	.st0{fill:#00B398;}
</style>
<path class="st0" d="M54.7,45.2c-5.4,0-9.8,4.4-9.8,9.8c0,1.2,0.2,2.3,0.6,3.4l0,0c1.3,4-0.9,8.3-4.9,9.6c0,0-0.1,0-0.1,0
	c-4,1.3-8.4-0.9-9.7-5c0,0,0,0,0,0l0,0c-0.9-2.7-1.4-5.5-1.4-8.3c0-9.2,5-17.7,13.1-22.1l0,0c3.5-2.1,4.7-6.6,2.6-10.1
	s-6.6-4.7-10.1-2.6l0,0c-19.2,10.9-26,35.3-15.2,54.5C24.1,81.7,30.4,87.5,38,91l0.4,0.2c3.7,1.8,5.2,6.2,3.4,9.9
	c-1.7,3.5-5.8,5-9.4,3.6l-0.2-0.1C4.6,92.1-7.6,59.7,4.9,32.1C13.8,12.6,33.3,0,54.7,0h0.1c30.2,0,54.7,24.5,54.7,54.7
	c0,21.5-12.6,41-32.2,49.9l-0.2,0.1c-3.8,1.5-8.1-0.3-9.6-4.1c-1.5-3.6,0.1-7.7,3.6-9.4l0.4-0.2c20.1-9.3,28.8-33,19.5-53.1
	c-3.5-7.6-9.3-13.9-16.6-18l0,0c-3.5-2.1-8-0.9-10.1,2.6c-2.1,3.5-0.9,8,2.6,10.1l0,0l0,0C75,37.1,80,45.5,80,54.7
	c0,2.8-0.4,5.6-1.4,8.3l0,0c-1.3,4-5.6,6.3-9.6,5c-4-1.2-6.3-5.5-5-9.5c0,0,0-0.1,0-0.1l0,0c1.9-5.1-0.7-10.7-5.8-12.6
	c-1.1-0.4-2.2-0.6-3.4-0.6"/>
<path class="st0" d="M136.1,45.7L144,5.1l13,29.4l13.4-29.4l7.1,40.6h-5.8l-3.6-22.8l-11.2,24.5L146,22.9l-4,22.8H136.1z"/>
<path class="st0" d="M183.7,12c0-0.9,0.3-1.8,1-2.5c1.4-1.4,3.7-1.4,5,0c0,0,0,0,0,0c0.7,0.6,1.1,1.5,1.1,2.5c0,1-0.4,1.9-1.1,2.5
	c-0.7,0.7-1.6,1.1-2.5,1.1c-1,0-1.9-0.4-2.5-1.1C184,13.9,183.7,13,183.7,12z M190,21.9v23.8h-5.5V21.9H190z"/>
<path class="st0" d="M197,21.9h5.5v2.2c1.7-1.8,4-2.8,6.5-2.9c2.4-0.1,4.8,0.8,6.5,2.6c1.3,1.5,2,3.9,2,7.3v14.6H212V32.4
	c0-2.3-0.3-4-1-4.9s-1.8-1.4-3.5-1.4c-1.5-0.1-3,0.6-3.9,1.8c-0.7,1.2-1.1,3.3-1.1,6.2v11.5H197V21.9z"/>
<path class="st0" d="M242,4.4h5.5v41.3H242v-2.5c-1.9,2-4.6,3.2-7.4,3.2c-3.1,0.1-6.1-1.2-8.1-3.6c-2.2-2.5-3.3-5.8-3.2-9.1
	c-0.1-3.3,1-6.5,3.2-8.9c3.7-4.3,10.2-4.8,14.5-1.1c0.3,0.3,0.7,0.6,1,0.9V4.4z M229,33.7c-0.1,2,0.6,4,1.8,5.6
	c1.2,1.4,2.9,2.2,4.8,2.2c1.9,0.1,3.7-0.7,4.9-2.1c1.3-1.5,2-3.5,1.9-5.5c0.1-2-0.6-4-1.9-5.5c-1.2-1.4-3-2.2-4.9-2.1
	c-1.8,0-3.6,0.8-4.7,2.1C229.6,29.8,228.9,31.7,229,33.7z"/>
<path class="st0" d="M260.2,27v18.7h-5.5V27h-2v-5.1h2v-9.2c0-3,0.5-5.1,1.6-6.4c1.6-1.8,3.9-2.7,6.3-2.6c1.3,0.1,2.5,0.4,3.7,0.9
	v5.6l-0.6-0.3c-0.9-0.5-1.9-0.8-2.9-0.9c-0.8-0.1-1.6,0.3-2,1.1c-0.4,1.3-0.6,2.6-0.5,4v7.8h6V27H260.2z"/>
<path class="st0" d="M274.9,21.9v13.7c0,3.9,1.6,5.9,4.7,5.9s4.7-2,4.7-5.9V21.9h5.5v13.8c0,1.7-0.2,3.3-0.7,4.9
	c-0.5,1.3-1.3,2.5-2.4,3.4c-4.2,3.2-10,3.2-14.2,0c-1.1-0.9-1.9-2.1-2.5-3.4c-0.5-1.6-0.8-3.3-0.7-4.9V21.9H274.9z"/>
<path class="st0" d="M302.1,4.4v41.3h-5.5V4.4H302.1z"/>
<path class="st0" d="M309.1,21.9h5.5v2.2c1.7-1.8,4-2.8,6.5-2.9c2.4-0.1,4.8,0.8,6.5,2.6c1.3,1.5,2,3.9,2,7.3v14.6h-5.5V32.4
	c0-2.3-0.3-4-1-4.9s-1.8-1.4-3.5-1.4c-1.5-0.1-3,0.6-3.9,1.8c-0.7,1.2-1.1,3.3-1.1,6.2v11.5h-5.5V21.9z"/>
<path class="st0" d="M358.3,35.1h-17.1c0.1,1.7,0.7,3.4,1.9,4.7c1.1,1.1,2.7,1.8,4.3,1.7c1.2,0,2.4-0.3,3.4-1c1.2-1,2.2-2.3,3-3.6
	l4.6,2.6c-0.6,1.1-1.4,2.2-2.3,3.1c-0.8,0.8-1.6,1.6-2.6,2.2c-0.9,0.6-1.9,1-3,1.2c-1.1,0.3-2.3,0.4-3.4,0.4
	c-3.2,0.1-6.3-1.1-8.5-3.4c-2.2-2.5-3.4-5.8-3.2-9.2c-0.2-3.3,1-6.6,3.1-9.1c4.6-4.6,12-4.6,16.7-0.1c2,2.2,3,5.3,3,9.2L358.3,35.1z
	 M352.6,30.6c-0.8-2.9-2.6-4.4-5.6-4.4c-0.6,0-1.3,0.1-1.9,0.3c-0.6,0.2-1.1,0.5-1.6,0.9c-0.5,0.4-0.9,0.9-1.2,1.4
	c-0.4,0.6-0.6,1.2-0.8,1.8L352.6,30.6z"/>
<path class="st0" d="M378.1,25.9l-4.5,2.4c-0.7-1.5-1.6-2.2-2.7-2.2c-0.5,0-1,0.2-1.3,0.5c-0.4,0.3-0.5,0.8-0.5,1.3
	c0,0.9,1.1,1.8,3.2,2.7c2.2,0.8,4.2,2,5.9,3.5c1,1.2,1.6,2.7,1.5,4.3c0,2.2-0.9,4.3-2.5,5.8c-1.6,1.5-3.8,2.3-6,2.2
	c-4,0-6.8-1.9-8.5-5.8l4.7-2.2c0.4,0.8,0.9,1.5,1.5,2.2c0.6,0.6,1.5,0.9,2.4,0.9c1.9,0,2.8-0.9,2.8-2.5c0-1-0.7-1.9-2.1-2.7
	l-1.7-0.8l-1.7-0.8c-1.3-0.5-2.4-1.3-3.4-2.3c-0.9-1.1-1.3-2.5-1.2-3.8c-0.1-1.9,0.7-3.8,2.1-5.1c1.4-1.3,3.3-2.1,5.3-2
	C374.4,21.2,376.6,22.8,378.1,25.9z"/>
<path class="st0" d="M398.5,25.9l-4.5,2.4c-0.7-1.5-1.6-2.2-2.7-2.2c-0.5,0-0.9,0.2-1.3,0.5c-0.4,0.3-0.6,0.8-0.5,1.3
	c0,0.9,1.1,1.8,3.2,2.7c2.2,0.8,4.2,2,5.9,3.5c1,1.2,1.6,2.7,1.5,4.3c0,2.2-0.9,4.3-2.5,5.8c-1.6,1.5-3.8,2.3-6,2.2
	c-4,0-6.8-2-8.5-5.8l4.7-2.2c0.4,0.8,0.9,1.5,1.5,2.2c0.6,0.6,1.5,0.9,2.4,0.9c1.9,0,2.8-0.8,2.8-2.5c0-1-0.7-1.9-2.1-2.7l-1.7-0.8
	l-1.7-0.8c-1.3-0.5-2.4-1.3-3.4-2.3c-0.9-1.1-1.3-2.5-1.2-3.8c-0.1-1.9,0.7-3.8,2.1-5.1c1.4-1.3,3.3-2.1,5.3-2
	C394.7,21.2,397,22.8,398.5,25.9z"/>
<path class="st0" d="M165.3,68.5v6.8c-2.8-2.6-6.4-4-10.2-4.1c-3.7-0.1-7.3,1.4-9.8,4.2c-2.7,2.7-4.1,6.4-4,10.2
	c-0.1,3.7,1.4,7.3,4,10c2.6,2.7,6.1,4.2,9.8,4.1c1.8,0,3.5-0.3,5.1-1c0.9-0.4,1.7-0.8,2.4-1.3c0.9-0.6,1.8-1.3,2.6-2v6.9
	c-3.1,1.8-6.7,2.8-10.3,2.8c-5.2,0.1-10.2-2-13.8-5.7c-3.7-3.6-5.8-8.6-5.7-13.8c0-4.7,1.7-9.3,4.8-12.9c3.7-4.5,9.3-7.1,15.2-6.9
	C158.9,65.7,162.3,66.7,165.3,68.5z"/>
<path class="st0" d="M170.3,92.1c-0.1-3.3,1.3-6.5,3.7-8.8c5-4.8,13-4.8,18,0c4.9,5,4.9,13,0,17.9c-2.4,2.4-5.7,3.7-9.1,3.6
	c-3.4,0.1-6.6-1.2-9-3.7C171.5,98.8,170.2,95.5,170.3,92.1z M176,92.2c-0.1,2.1,0.6,4.1,1.9,5.7c2.9,2.8,7.4,2.8,10.3,0
	c2.6-3.3,2.6-7.8,0-11.1c-2.9-2.8-7.4-2.8-10.3,0C176.6,88.3,175.9,90.2,176,92.2L176,92.2z"/>
<path class="st0" d="M201.6,80.4h5.5v2.2c1.7-1.8,4-2.8,6.5-2.9c2.4-0.1,4.8,0.8,6.5,2.6c1.3,1.5,2,3.9,2,7.3v14.6h-5.5V90.9
	c0-2.3-0.3-4-1-4.9c-0.9-1-2.2-1.5-3.5-1.4c-1.5-0.1-3,0.5-3.9,1.8c-0.7,1.2-1.1,3.3-1.1,6.2v11.5h-5.5L201.6,80.4z"/>
<path class="st0" d="M229,80.4h5.5v2.2c1.7-1.8,4-2.8,6.5-2.9c2.4-0.1,4.8,0.8,6.5,2.6c1.3,1.5,2,3.9,2,7.3v14.6H244V90.9
	c0-2.3-0.3-4-1-4.9s-1.8-1.4-3.5-1.4c-1.5-0.1-3,0.5-3.9,1.8c-0.7,1.2-1.1,3.3-1.1,6.2v11.5H229V80.4z"/>
<path class="st0" d="M278.2,93.6h-17.1c0,1.7,0.7,3.4,1.9,4.7c1.1,1.1,2.7,1.8,4.3,1.7c1.2,0,2.4-0.3,3.4-1c1.2-1,2.2-2.3,3-3.6
	l4.7,2.6c-0.6,1.1-1.4,2.2-2.3,3.2c-0.7,0.8-1.6,1.6-2.6,2.2c-0.9,0.6-1.9,1-3,1.2c-1.1,0.3-2.3,0.4-3.5,0.4
	c-3.2,0.1-6.3-1.1-8.6-3.4c-2.2-2.5-3.4-5.8-3.2-9.1c-0.2-3.3,1-6.6,3.1-9.2c4.6-4.6,12-4.6,16.7-0.1c2,2.2,3,5.3,3,9.2L278.2,93.6z
	 M272.5,89.1c-0.8-2.9-2.6-4.4-5.5-4.4c-0.6,0-1.3,0.1-1.9,0.3c-1.2,0.4-2.2,1.2-2.8,2.3c-0.4,0.6-0.6,1.2-0.8,1.8H272.5z"/>
<path class="st0" d="M302.7,81.4v7.3c-0.9-1.2-2.1-2.3-3.4-3.2c-1-0.6-2.2-0.9-3.5-0.9c-2,0-3.8,0.7-5.2,2.2c-1.4,1.5-2.1,3.4-2,5.5
	c-0.1,2,0.6,4,2,5.5c1.3,1.4,3.2,2.2,5.1,2.2c1.2,0,2.4-0.3,3.5-0.9c1.3-0.9,2.5-2,3.4-3.2v7.3c-2.1,1.1-4.4,1.7-6.7,1.7
	c-3.4,0.1-6.8-1.2-9.2-3.6c-2.4-2.3-3.8-5.6-3.7-8.9c-0.1-3.4,1.3-6.7,3.8-9c2.5-2.4,5.8-3.8,9.2-3.7
	C298.4,79.7,300.7,80.3,302.7,81.4z"/>
<path class="st0" d="M313.7,85.5v18.7h-5.5V85.5h-2.4v-5.1h2.4v-8.7h5.5v8.7h4.3v5.1H313.7z"/>
<path class="st0" d="M343.9,93.6h-17.1c0.1,1.7,0.7,3.4,1.9,4.7c1.1,1.1,2.7,1.8,4.3,1.7c1.2,0,2.4-0.3,3.4-1c1.2-1,2.2-2.3,3-3.6
	l4.7,2.6c-0.6,1.1-1.4,2.2-2.3,3.2c-0.8,0.8-1.6,1.6-2.6,2.2c-0.9,0.6-1.9,1-3,1.2c-1.1,0.3-2.3,0.4-3.4,0.4
	c-3.2,0.1-6.3-1.1-8.6-3.4c-2.2-2.5-3.4-5.8-3.2-9.1c-0.2-3.3,1-6.6,3.1-9.2c4.6-4.6,12-4.6,16.7-0.1c2,2.2,3,5.3,3,9.2L343.9,93.6z
	 M338.2,89.1c-0.8-2.9-2.6-4.4-5.6-4.4c-0.6,0-1.3,0.1-1.9,0.3c-0.6,0.2-1.1,0.5-1.6,0.9c-0.5,0.4-0.9,0.9-1.2,1.4
	c-0.4,0.6-0.6,1.2-0.8,1.8H338.2z"/>
<path class="st0" d="M367.5,62.9h5.5v41.3h-5.5v-2.5c-1.9,2-4.6,3.2-7.4,3.2c-3.1,0.1-6.1-1.2-8.1-3.6c-2.2-2.5-3.3-5.8-3.2-9.1
	c-0.1-3.3,1-6.5,3.2-8.9c2-2.3,4.9-3.7,8-3.6c2.9,0,5.6,1.3,7.5,3.4L367.5,62.9z M354.4,92.2c-0.1,2,0.6,4,1.8,5.6
	c1.2,1.4,2.9,2.2,4.8,2.2c1.9,0.1,3.7-0.7,4.9-2.1c2.5-3.3,2.5-7.8,0-11.1c-1.2-1.4-3.1-2.2-4.9-2.2c-1.8,0-3.6,0.8-4.7,2.2
	C355,88.4,354.3,90.3,354.4,92.2z"/>
</svg>
